									<!--<svg width='32px' height='32px' viewBox="0 0 100 100">
                                    <g transform="translate(0,0)" id="contactsCircle1">
                                        <path d="M75,50.5l5-1.5c-0.1-2.2-0.4-4.3-0.9-6.3l-5.2-0.1c-0.2-0.6-0.4-1.1-0.6-1.7l4-3.3c-0.9-1.9-2-3.8-3.2-5.5L69.2,34 c-0.4-0.5-0.8-0.9-1.2-1.3l2.4-4.6c-1.6-1.4-3.3-2.7-5.1-3.8l-3.7,3.6c-0.5-0.3-1.1-0.5-1.6-0.8l0.5-5.2c-2-0.7-4-1.3-6.2-1.6 l-2.1,4.8c-0.6-0.1-1.2-0.1-1.8-0.1l-1.5-5c-2.2,0.1-4.3,0.4-6.3,0.9l-0.1,5.2c-0.6,0.2-1.1,0.4-1.7,0.6l-3.3-4 c-1.9,0.9-3.8,2-5.5,3.2l1.9,4.9c-0.5,0.4-0.9,0.8-1.3,1.2l-4.6-2.4c-1.4,1.6-2.7,3.3-3.8,5.1l3.6,3.7c-0.3,0.5-0.5,1.1-0.8,1.6 l-5.2-0.5c-0.7,2-1.3,4-1.6,6.2l4.8,2.1c-0.1,0.6-0.1,1.2-0.1,1.8l-5,1.5c0.1,2.2,0.4,4.3,0.9,6.3l5.2,0.1c0.2,0.6,0.4,1.1,0.6,1.7 l-4,3.3c0.9,1.9,2,3.8,3.2,5.5l4.9-1.9c0.4,0.5,0.8,0.9,1.2,1.3l-2.4,4.6c1.6,1.4,3.3,2.7,5.1,3.8l3.7-3.6c0.5,0.3,1.1,0.5,1.6,0.8 l-0.5,5.2c2,0.7,4,1.3,6.2,1.6l2.1-4.8c0.6,0.1,1.2,0.1,1.8,0.1l1.5,5c2.2-0.1,4.3-0.4,6.3-0.9l0.1-5.2c0.6-0.2,1.1-0.4,1.7-0.6 l3.3,4c1.9-0.9,3.8-2,5.5-3.2L66,69.2c0.5-0.4,0.9-0.8,1.3-1.2l4.6,2.4c1.4-1.6,2.7-3.3,3.8-5.1l-3.6-3.7c0.3-0.5,0.5-1.1,0.8-1.6 l5.2,0.5c0.7-2,1.3-4,1.6-6.2l-4.8-2.1C74.9,51.7,75,51.1,75,50.5z M50,65c-8.3,0-15-6.7-15-15c0-8.3,6.7-15,15-15s15,6.7,15,15 C65,58.3,58.3,65,50,65z" fill="red"><animatetransform attributename="transform" type="rotate" from="0 50 50" to="90 50 50" dur="6s" repeatcount="indefinite"></animatetransform></path>		
                                    </g>
                                    <g transform="translate(0,0), scale(0.6)" id="contactsCircle2">
                                        <path d="M79.9,52.6C80,51.8,80,50.9,80,50s0-1.8-0.1-2.6l-5.1-0.4c-0.3-2.4-0.9-4.6-1.8-6.7l4.2-2.9c-0.7-1.6-1.6-3.1-2.6-4.5 L70,35c-1.4-1.9-3.1-3.5-4.9-4.9l2.2-4.6c-1.4-1-2.9-1.9-4.5-2.6L59.8,27c-2.1-0.9-4.4-1.5-6.7-1.8l-0.4-5.1C51.8,20,50.9,20,50,20 s-1.8,0-2.6,0.1l-0.4,5.1c-2.4,0.3-4.6,0.9-6.7,1.8l-2.9-4.1c-1.6,0.7-3.1,1.6-4.5,2.6l2.1,4.6c-1.9,1.4-3.5,3.1-5,4.9l-4.5-2.1 c-1,1.4-1.9,2.9-2.6,4.5l4.1,2.9c-0.9,2.1-1.5,4.4-1.8,6.8l-5,0.4C20,48.2,20,49.1,20,50s0,1.8,0.1,2.6l5,0.4 c0.3,2.4,0.9,4.7,1.8,6.8l-4.1,2.9c0.7,1.6,1.6,3.1,2.6,4.5l4.5-2.1c1.4,1.9,3.1,3.5,5,4.9l-2.1,4.6c1.4,1,2.9,1.9,4.5,2.6l2.9-4.1 c2.1,0.9,4.4,1.5,6.7,1.8l0.4,5.1C48.2,80,49.1,80,50,80s1.8,0,2.6-0.1l0.4-5.1c2.3-0.3,4.6-0.9,6.7-1.8l2.9,4.2 c1.6-0.7,3.1-1.6,4.5-2.6L65,69.9c1.9-1.4,3.5-3,4.9-4.9l4.6,2.2c1-1.4,1.9-2.9,2.6-4.5L73,59.8c0.9-2.1,1.5-4.4,1.8-6.7L79.9,52.6 z M50,65c-8.3,0-15-6.7-15-15c0-8.3,6.7-15,15-15s15,6.7,15,15C65,58.3,58.3,65,50,65z" fill="none"><animatetransform attributename="transform" type="rotate" from="90 50 50" to="0 50 50" dur="4s" repeatcount="indefinite"></animatetransform></path>
                                    </g>		
                                </svg>
								
								-->
								
	<svg width='32px' height='32px'  xmlns="http://www.w3.org/2000/svg" viewBox="0 -26 100 60" preserveAspectRatio="xMidYMid" class="uil-gears">
	
		<g transform="translate(-20,-38)" id="contactsCircle1">
			<path d="M75,50.5l5-1.5c-0.1-2.2-0.4-4.3-0.9-6.3l-5.2-0.1c-0.2-0.6-0.4-1.1-0.6-1.7l4-3.3c-0.9-1.9-2-3.8-3.2-5.5L69.2,34 c-0.4-0.5-0.8-0.9-1.2-1.3l2.4-4.6c-1.6-1.4-3.3-2.7-5.1-3.8l-3.7,3.6c-0.5-0.3-1.1-0.5-1.6-0.8l0.5-5.2c-2-0.7-4-1.3-6.2-1.6 l-2.1,4.8c-0.6-0.1-1.2-0.1-1.8-0.1l-1.5-5c-2.2,0.1-4.3,0.4-6.3,0.9l-0.1,5.2c-0.6,0.2-1.1,0.4-1.7,0.6l-3.3-4 c-1.9,0.9-3.8,2-5.5,3.2l1.9,4.9c-0.5,0.4-0.9,0.8-1.3,1.2l-4.6-2.4c-1.4,1.6-2.7,3.3-3.8,5.1l3.6,3.7c-0.3,0.5-0.5,1.1-0.8,1.6 l-5.2-0.5c-0.7,2-1.3,4-1.6,6.2l4.8,2.1c-0.1,0.6-0.1,1.2-0.1,1.8l-5,1.5c0.1,2.2,0.4,4.3,0.9,6.3l5.2,0.1c0.2,0.6,0.4,1.1,0.6,1.7 l-4,3.3c0.9,1.9,2,3.8,3.2,5.5l4.9-1.9c0.4,0.5,0.8,0.9,1.2,1.3l-2.4,4.6c1.6,1.4,3.3,2.7,5.1,3.8l3.7-3.6c0.5,0.3,1.1,0.5,1.6,0.8 l-0.5,5.2c2,0.7,4,1.3,6.2,1.6l2.1-4.8c0.6,0.1,1.2,0.1,1.8,0.1l1.5,5c2.2-0.1,4.3-0.4,6.3-0.9l0.1-5.2c0.6-0.2,1.1-0.4,1.7-0.6 l3.3,4c1.9-0.9,3.8-2,5.5-3.2L66,69.2c0.5-0.4,0.9-0.8,1.3-1.2l4.6,2.4c1.4-1.6,2.7-3.3,3.8-5.1l-3.6-3.7c0.3-0.5,0.5-1.1,0.8-1.6 l5.2,0.5c0.7-2,1.3-4,1.6-6.2l-4.8-2.1C74.9,51.7,75,51.1,75,50.5z M50,65c-8.3,0-15-6.7-15-15c0-8.3,6.7-15,15-15s15,6.7,15,15 C65,58.3,58.3,65,50,65z" fill="#ff0000"><animateTransform attributeName="transform" type="rotate" from="0 50 50" to="90 50 50" dur="2s" repeatCount="indefinite"></animateTransform></path>		
		</g>
		<g transform="translate(46,-15), scale(0.6)" id="contactsCircle2">
			<path d="M79.9,52.6C80,51.8,80,50.9,80,50s0-1.8-0.1-2.6l-5.1-0.4c-0.3-2.4-0.9-4.6-1.8-6.7l4.2-2.9c-0.7-1.6-1.6-3.1-2.6-4.5 L70,35c-1.4-1.9-3.1-3.5-4.9-4.9l2.2-4.6c-1.4-1-2.9-1.9-4.5-2.6L59.8,27c-2.1-0.9-4.4-1.5-6.7-1.8l-0.4-5.1C51.8,20,50.9,20,50,20 s-1.8,0-2.6,0.1l-0.4,5.1c-2.4,0.3-4.6,0.9-6.7,1.8l-2.9-4.1c-1.6,0.7-3.1,1.6-4.5,2.6l2.1,4.6c-1.9,1.4-3.5,3.1-5,4.9l-4.5-2.1 c-1,1.4-1.9,2.9-2.6,4.5l4.1,2.9c-0.9,2.1-1.5,4.4-1.8,6.8l-5,0.4C20,48.2,20,49.1,20,50s0,1.8,0.1,2.6l5,0.4 c0.3,2.4,0.9,4.7,1.8,6.8l-4.1,2.9c0.7,1.6,1.6,3.1,2.6,4.5l4.5-2.1c1.4,1.9,3.1,3.5,5,4.9l-2.1,4.6c1.4,1,2.9,1.9,4.5,2.6l2.9-4.1 c2.1,0.9,4.4,1.5,6.7,1.8l0.4,5.1C48.2,80,49.1,80,50,80s1.8,0,2.6-0.1l0.4-5.1c2.3-0.3,4.6-0.9,6.7-1.8l2.9,4.2 c1.6-0.7,3.1-1.6,4.5-2.6L65,69.9c1.9-1.4,3.5-3,4.9-4.9l4.6,2.2c1-1.4,1.9-2.9,2.6-4.5L73,59.8c0.9-2.1,1.5-4.4,1.8-6.7L79.9,52.6 z M50,65c-8.3,0-15-6.7-15-15c0-8.3,6.7-15,15-15s15,6.7,15,15C65,58.3,58.3,65,50,65z" fill="#ff0000"><animateTransform attributeName="transform" type="rotate" from="90 50 50" to="0 50 50" dur="1.5s" repeatCount="indefinite"></animateTransform></path>
		</g>		
		
	</svg>